<?xml version="1.0" encoding="UTF-8" standalone="no"?>
<!-- Generator: Adobe Illustrator 16.0.0, SVG Export Plug-In . SVG Version: 6.00 Build 0)  -->

<svg
   version="1.1"
   x="0px"
   y="0px"
   width="75.197006"
   height="111.181"
   viewBox="0 0 75.197006 111.181"
   enable-background="new 0 0 88.25 119.25"
   xml:space="preserve"
   id="svg5"
   sodipodi:docname="kinderliebenzam original.svg"
   xmlns:inkscape="http://www.inkscape.org/namespaces/inkscape"
   xmlns:sodipodi="http://sodipodi.sourceforge.net/DTD/sodipodi-0.dtd"
   xmlns="http://www.w3.org/2000/svg"
   xmlns:svg="http://www.w3.org/2000/svg"><defs
   id="defs5" /><sodipodi:namedview
   id="namedview5"
   pagecolor="#ffffff"
   bordercolor="#666666"
   borderopacity="1.0"
   inkscape:showpageshadow="2"
   inkscape:pageopacity="0.0"
   inkscape:pagecheckerboard="0"
   inkscape:deskcolor="#d1d1d1"><inkscape:page
     x="0"
     y="0"
     width="75.197006"
     height="111.181"
     id="page2"
     margin="0"
     bleed="0" /></sodipodi:namedview>
<g
   id="Ebene_3"
   inkscape:export-filename="Ebene_3.png"
   inkscape:export-xdpi="300"
   inkscape:export-ydpi="300"
   transform="translate(-7.711,-5.4419999)">
	<path
   fill="#e87b05"
   d="m 78.314,43.503 c -0.248,-0.752 -0.393,-2.325 -0.631,-5.77 -0.143,-2.057 -0.43,-7.662 -1.164,-8.15 -1.914,-1.272 -19.913,-1.272 -27.296,-1.151 0,0 -39.351,-0.382 -40.022,1.36 -0.458,1.187 -1.49,37.341 -1.49,37.341 l 1.86,17.48 c 0,0 9.867,0.029 10.521,0 0.654,-0.031 8.934,-0.187 9.521,0.014 1.053,0.358 0.897,4.135 0.356,4.701 -0.54,0.566 -17.822,5.361 -18.647,7.037 -0.826,1.674 1.538,18.797 1.538,18.797 l 26.244,-0.023 20.556,1.039 16.551,0.445 c 0,0 -1.724,-11.859 -2.734,-15.719 C 73,99.084 69.203,97.128 63.92,95.75 59.459,94.586 56.333,92.068 53.664,90.804 c -0.773,-0.366 -0.413,-3.06 0.048,-5.431 0.459,-2.371 3.619,-7.361 3.619,-7.361 0,0 7.007,0.67 9.011,0.665 1.918,-0.005 5.607,0.335 6.369,-0.294 0.762,-0.629 2.857,-4.827 2.857,-4.827 0,0 1.138,-1.817 1.677,-2.632 0.695,-1.051 -0.313,-2.094 -1.397,-2.162 -1.073,-0.067 -2.008,0.498 -4.098,-0.689 -3.936,-2.236 -3.346,-5.914 -3.346,-5.914 0.299,-0.212 7.061,-0.65 7.061,-0.65 0,0 2.352,0.03 2.467,-0.747 0.117,-0.779 0.969,-4.429 0.969,-4.429 0,0 3.494,-2.52 3.988,-3.35 0.353,-0.596 -4.325,-8.728 -4.575,-9.48 z m -5.998,-10.41 c 0.173,-0.431 -0.177,1.776 -0.633,2.926 -0.066,0.165 -1.061,2.462 -1.061,2.462 C 69.7,38.025 68.674,37.17 68.674,37.17 Z m -7.387,-3.419 c 1.159,3.034 0.963,3.313 1.215,4.6 0.037,0.185 0.575,2.535 0.575,2.535 -0.42,-0.216 -2.934,-0.008 -2.934,-0.008 z m -7.311,13.538 c 0,0 -4.632,-1.066 -5.171,-1.146 -0.539,-0.08 3.447,-1.185 3.662,-1.146 0.216,0.039 1.725,0 1.725,0 z m -1.941,-9.384 c 0.2,0.004 2.695,1.575 3.821,2.412 0.16,0.119 1.459,1.057 1.459,1.057 l -1.859,1.669 c 0,0 -3.975,-5.152 -3.421,-5.138 z m 9.71,10.417 c -1.98,0 -3.99,0.08 -5.961,-0.021 -0.08,-1.689 0.281,-2.95 1.42,-4.189 1.24,-1.36 2.66,-1.326 4.43,-1.33 2.082,-0.005 4.539,0.729 6.512,5.21 -1.862,0.489 -4.472,0.33 -6.401,0.33 z m 8.349,-2.844 c -0.109,0.072 -0.974,0.664 -0.974,0.664 L 72.147,40.55 c 0,0 4.051,-1.304 3.92,-0.967 -0.046,0.124 -1.567,1.311 -2.331,1.818 z"
   id="path1" />
	<ellipse
   fill="#e87b05"
   cx="64.841003"
   cy="40.631001"
   rx="1.9299999"
   ry="1.3329999"
   id="ellipse1" />
	<g
   id="g4">
		<path
   fill="#e87b05"
   d="M 10.475,21.86 31.606,16.205 30.176,10.915 9.044,16.57 Z M 9.379,27.333 H 31.272 V 21.86 H 9.379 Z"
   id="path2" />
		<path
   fill="#e87b05"
   d="m 71.893,5.442 c -2.861,0 -5.262,2.25 -5.445,5.078 -0.213,-2.827 -2.613,-5.078 -5.472,-5.078 -3.01,0 -5.473,2.463 -5.473,5.473 v 5.473 10.945 h 5.473 V 16.966 c 0.304,2.736 2.615,4.895 5.442,4.895 3.01,0 5.475,-2.463 5.475,-5.472 v 10.945 h 5.472 V 10.915 C 77.364,7.905 74.9,5.442 71.893,5.442 Z"
   id="path3" />
		<polygon
   fill="#e87b05"
   points="9.379,10.915 31.271,10.915 31.271,5.442 9.379,5.442 "
   id="polygon3" />
		<path
   fill="#e87b05"
   d="m 40.118,10.915 h 5.473 c 0,-3.01 -2.464,-5.473 -5.473,-5.473 -3.01,0 -5.473,2.463 -5.473,5.473 V 21.86 c 0,3.01 2.463,5.473 5.473,5.473 3.009,0 5.473,-2.463 5.473,-5.473 h -5.473 z m 5.473,-5.473 v 21.892 h 5.472 V 5.442 Z"
   id="path4" />
	</g>
</g>


</svg>
