<?xml version="1.0" encoding="utf-8"?>
<!-- Generator: Adobe Illustrator 16.0.0, SVG Export Plug-In . SVG Version: 6.00 Build 0)  -->
<!DOCTYPE svg PUBLIC "-//W3C//DTD SVG 1.1//EN" "http://www.w3.org/Graphics/SVG/1.1/DTD/svg11.dtd">
<svg version="1.1" xmlns="http://www.w3.org/2000/svg" xmlns:xlink="http://www.w3.org/1999/xlink" x="0px" y="0px" width="88.25px"
	 height="119.25px" viewBox="0 0 88.25 119.25" enable-background="new 0 0 88.25 119.25" xml:space="preserve">
<g id="Ebene_3">
	<path fill="#E87B05" d="M78.314,43.503c-0.248-0.752-0.393-2.325-0.631-5.77c-0.143-2.057-0.43-7.662-1.164-8.15
		c-1.914-1.272-19.913-1.272-27.296-1.151c0,0-39.351-0.382-40.022,1.36c-0.458,1.187-1.49,37.341-1.49,37.341l1.86,17.48
		c0,0,9.867,0.029,10.521,0c0.654-0.031,8.934-0.187,9.521,0.014c1.053,0.358,0.897,4.135,0.356,4.701
		c-0.54,0.566-17.822,5.361-18.647,7.037c-0.826,1.674,1.538,18.797,1.538,18.797l26.244-0.023l20.556,1.039l16.551,0.445
		c0,0-1.724-11.859-2.734-15.719c-0.477-1.82-4.274-3.776-9.557-5.154c-4.461-1.164-7.587-3.682-10.256-4.946
		c-0.773-0.366-0.413-3.06,0.048-5.431c0.459-2.371,3.619-7.361,3.619-7.361s7.007,0.67,9.011,0.665
		c1.918-0.005,5.607,0.335,6.369-0.294s2.857-4.827,2.857-4.827s1.138-1.817,1.677-2.632c0.695-1.051-0.313-2.094-1.397-2.162
		c-1.073-0.067-2.008,0.498-4.098-0.689c-3.936-2.236-3.346-5.914-3.346-5.914c0.299-0.212,7.061-0.65,7.061-0.65
		s2.352,0.03,2.467-0.747c0.117-0.779,0.969-4.429,0.969-4.429s3.494-2.52,3.988-3.35C83.242,52.387,78.564,44.255,78.314,43.503z
		 M72.316,33.093c0.173-0.431-0.177,1.776-0.633,2.926c-0.066,0.165-1.061,2.462-1.061,2.462c-0.922-0.456-1.948-1.311-1.948-1.311
		L72.316,33.093z M64.929,29.674c1.159,3.034,0.963,3.313,1.215,4.6c0.037,0.185,0.575,2.535,0.575,2.535
		c-0.42-0.216-2.934-0.008-2.934-0.008L64.929,29.674z M57.618,43.212c0,0-4.632-1.066-5.171-1.146s3.447-1.185,3.662-1.146
		c0.216,0.039,1.725,0,1.725,0L57.618,43.212z M55.677,33.828c0.2,0.004,2.695,1.575,3.821,2.412
		c0.16,0.119,1.459,1.057,1.459,1.057l-1.859,1.669C59.098,38.966,55.123,33.814,55.677,33.828z M65.387,44.245
		c-1.98,0-3.99,0.08-5.961-0.021c-0.08-1.689,0.281-2.95,1.42-4.189c1.24-1.36,2.66-1.326,4.43-1.33
		c2.082-0.005,4.539,0.729,6.512,5.21C69.926,44.404,67.316,44.245,65.387,44.245z M73.736,41.401
		c-0.109,0.072-0.974,0.664-0.974,0.664l-0.615-1.515c0,0,4.051-1.304,3.92-0.967C76.021,39.707,74.5,40.894,73.736,41.401z"/>
	<ellipse fill="#E87B05" cx="64.841" cy="40.631" rx="1.93" ry="1.333"/>
	<g>
		<path fill="#E87B05" d="M10.475,21.86l21.131-5.655l-1.43-5.29L9.044,16.57L10.475,21.86L10.475,21.86z M9.379,27.333h21.893
			V21.86H9.379V27.333L9.379,27.333z"/>
		<path fill="#E87B05" d="M71.893,5.442c-2.861,0-5.262,2.25-5.445,5.078c-0.213-2.827-2.613-5.078-5.472-5.078
			c-3.01,0-5.473,2.463-5.473,5.473v5.473v10.945h5.473V16.966c0.304,2.736,2.615,4.895,5.442,4.895c3.01,0,5.475-2.463,5.475-5.472
			v10.945h5.472V10.915C77.364,7.905,74.9,5.442,71.893,5.442L71.893,5.442z"/>
		<polygon fill="#E87B05" points="9.379,10.915 31.271,10.915 31.271,5.442 9.379,5.442 		"/>
		<path fill="#E87B05" d="M40.118,10.915h5.473c0-3.01-2.464-5.473-5.473-5.473c-3.01,0-5.473,2.463-5.473,5.473V21.86
			c0,3.01,2.463,5.473,5.473,5.473c3.009,0,5.473-2.463,5.473-5.473h-5.473V10.915L40.118,10.915z M45.591,5.442v21.892h5.472V5.442
			H45.591L45.591,5.442z"/>
	</g>
</g>
<g id="Ebene_1" display="none">
	<path display="inline" fill="#B94717" d="M96.5,77.75"/>
</g>
<g id="Ebene_2">
</g>
</svg>
